<?xml version="1.0" encoding="UTF-8"?>
<svg version="1.1" xmlns="http://www.w3.org/2000/svg" width="256" height="256">
<path d="M0 0 C3.60189277 1.20063092 4.34305857 2.39814637 6.625 5.375 C7.33011719 6.28121094 8.03523438 7.18742187 8.76171875 8.12109375 C9.50035156 9.07113281 10.23898438 10.02117187 11 11 C12.4731862 12.81736422 13.95238379 14.62987169 15.4375 16.4375 C16.19160156 17.35789062 16.94570312 18.27828125 17.72265625 19.2265625 C19.20786601 21.03530852 20.69476624 22.84266818 22.18359375 24.6484375 C27.7078928 31.36425203 33.10583382 38.17011738 38.45507812 45.02539062 C40.09435043 47.12059201 41.74219937 49.2088692 43.390625 51.296875 C51.26617789 61.30304914 58.85197469 71.45987286 66 82 C66.39445312 82.57556641 66.78890625 83.15113281 67.1953125 83.74414062 C78.63600984 100.60516835 84.03430114 119.59168675 80.28125 139.88671875 C76.25818993 153.59432261 68.51134005 165.72405922 55.74609375 172.75390625 C45.90365794 177.22010401 35.91912042 179.42978239 25.125 178.75 C23.80757812 178.68296875 22.49015625 178.6159375 21.1328125 178.546875 C6.99883174 177.284091 -6.83191071 173.73395943 -20.5625 170.3125 C-22.26745227 169.89206744 -23.97252998 169.4721432 -25.67773438 169.05273438 C-29.78661818 168.04097918 -33.8937699 167.02246957 -38 166 C-38 162 -38 162 -36.0234375 159.81640625 C-34.21263121 158.27535134 -32.40004672 156.73638412 -30.5859375 155.19921875 C-28.08680381 153.15160038 -28.08680381 153.15160038 -26.3515625 151.26953125 C-24.4303905 149.28728153 -22.81460775 148.0284814 -20.00292969 147.93017578 C-12.62768094 148.76904467 -5.47578277 150.32216216 1.75 152 C4.11947329 152.54305766 6.48925506 153.08477154 8.859375 153.625 C9.89545898 153.86476562 10.93154297 154.10453125 11.99902344 154.3515625 C22.57667044 156.63713283 34.14252516 158.3459294 43.84765625 152.61328125 C49.78928862 148.15975281 54.72578279 142.49740305 56 135 C56.2248393 132.27101295 56.37914925 129.6070983 56.4375 126.875 C56.47121704 125.88222046 56.47121704 125.88222046 56.50561523 124.86938477 C56.44450104 111.61700618 50.35198756 99.99258887 44.25 88.625 C43.10773908 86.46084377 41.97045266 84.29412162 40.83351135 82.12716675 C40.05468341 80.64312659 39.27443326 79.15983197 38.49278259 77.67727661 C34.3923671 69.88777056 30.47385514 62.01061237 26.5625 54.125 C21.94498845 44.83575628 17.26346309 35.58956075 12.39526367 26.4284668 C9.49363222 20.96205061 6.66028946 15.46413825 3.875 9.9375 C3.28827515 8.78338623 3.28827515 8.78338623 2.68969727 7.60595703 C0 2.2363588 0 2.2363588 0 0 Z " fill="#29649A" transform="translate(165,64)"/>
<path d="M0 0 C12.08877613 12.37660413 15.97183687 26.98578905 16.08251953 43.78930664 C15.88940528 56.78470144 12.73605548 69.13310581 9.625 81.6875 C9.05806551 84.03502874 8.49165105 86.38268314 7.92578125 88.73046875 C3.94766356 105.04217288 3.94766356 105.04217288 2.625 107.6875 C-1.96372734 105.63492672 -4.70624169 102.46238445 -8.0625 98.8125 C-8.65611328 98.18730469 -9.24972656 97.56210938 -9.86132812 96.91796875 C-10.42658203 96.30824219 -10.99183594 95.69851562 -11.57421875 95.0703125 C-12.08815186 94.51746582 -12.60208496 93.96461914 -13.1315918 93.39501953 C-14.60173332 91.37613678 -15.10164482 90.17664663 -15.375 87.6875 C-14.87768555 84.76171875 -14.87768555 84.76171875 -14.01171875 81.375 C-13.70169922 80.13363281 -13.39167969 78.89226562 -13.07226562 77.61328125 C-12.73634586 76.30451566 -12.39975407 74.99592239 -12.0625 73.6875 C-4.99376277 48.93206956 -4.99376277 48.93206956 -10.375 24.6875 C-14.28998408 18.75909554 -19.91045282 14.81253741 -26.82421875 13.0703125 C-50.06104682 9.58300905 -69.88723947 22.46091722 -89.54882812 32.90332031 C-102.18847985 39.60574655 -114.94968108 46.05175009 -127.75048828 52.44042969 C-131.29481214 54.20987168 -134.83693608 55.98366451 -138.37890625 57.7578125 C-140.64570487 58.89088203 -142.91262729 60.02370394 -145.1796875 61.15625 C-146.23171356 61.68327515 -147.28373962 62.21030029 -148.36764526 62.7532959 C-149.83670822 63.48546326 -149.83670822 63.48546326 -151.33544922 64.23242188 C-152.19081268 64.65970581 -153.04617615 65.08698975 -153.92745972 65.52722168 C-156.37543682 66.68770708 -158.84941659 67.70899913 -161.375 68.6875 C-159.79462988 64.40226564 -156.53187838 61.95762857 -153.125 59.125 C-152.50093262 58.5983374 -151.87686523 58.0716748 -151.23388672 57.52905273 C-146.4871943 53.54924371 -141.64754534 49.69412665 -136.75537109 45.89526367 C-133.02914236 43.00068152 -129.35805721 40.04944875 -125.71411133 37.05200195 C-116.59735243 29.5580148 -107.21499803 22.45473623 -97.72900391 15.43603516 C-95.56367003 13.82764258 -93.41073736 12.20430869 -91.26171875 10.57421875 C-63.79583974 -10.14177936 -30.68689282 -22.87272382 0 0 Z " fill="#295B90" transform="translate(230.375,20.3125)"/>
<path d="M0 0 C0.71168839 0.18221603 1.42337677 0.36443207 2.15663147 0.5521698 C4.97192397 1.2796082 7.74034683 2.04105311 10.5 2.9609375 C8.91092475 7.11018954 5.86467701 9.64501944 2.625 12.5234375 C2.09519531 13.00490234 1.56539063 13.48636719 1.01953125 13.98242188 C-0.4708356 15.32671058 -1.98480975 16.64469133 -3.5 17.9609375 C-4.44359375 18.91806641 -4.44359375 18.91806641 -5.40625 19.89453125 C-8.74916573 21.59717303 -11.68262034 20.39412656 -15.125 19.4609375 C-16.73348215 19.06665212 -18.34292348 18.67626638 -19.953125 18.2890625 C-20.83291016 18.07443359 -21.71269531 17.85980469 -22.61914062 17.63867188 C-28.01228027 16.36991292 -33.44058623 15.28644173 -38.875 14.2109375 C-39.94314941 13.98857422 -41.01129883 13.76621094 -42.11181641 13.53710938 C-53.9814703 11.19800847 -64.13183892 10.34895646 -74.46875 17.28125 C-79.88718259 21.4828312 -82.36679344 26.56131782 -84.5 32.9609375 C-84.67603147 35.37343442 -84.76744968 37.79244645 -84.8125 40.2109375 C-84.84988281 41.49484375 -84.88726562 42.77875 -84.92578125 44.1015625 C-84.26121507 57.07474265 -78.80937783 68.18643363 -72.82046509 79.4208374 C-70.4784364 83.81520615 -68.18680973 88.23592436 -65.88671875 92.65234375 C-65.38839035 93.60584717 -64.89006195 94.55935059 -64.37663269 95.54174805 C-60.15091541 103.64831198 -56.0380877 111.80828669 -51.95703125 119.98828125 C-51.63925594 120.62515554 -51.32148064 121.26202984 -50.99407578 121.91820335 C-48.44709276 127.02479332 -45.90501798 132.13382184 -43.3638916 137.24332809 C-41.83902267 140.30932824 -40.31329571 143.37489172 -38.78605652 146.43971252 C-37.67522164 148.66895197 -36.5661758 150.89908407 -35.45918274 153.13023376 C-34.96580917 154.12027908 -34.47243561 155.1103244 -33.96411133 156.13037109 C-33.53447586 156.99487885 -33.10484039 157.8593866 -32.66218567 158.75009155 C-31.45130095 161.14647871 -31.45130095 161.14647871 -29.5 163.9609375 C-29.875 166.1484375 -29.875 166.1484375 -30.5 167.9609375 C-36.94505147 160.55981383 -43.26676748 153.10034013 -49.28686523 145.34838867 C-52.75072347 140.89309723 -56.2987287 136.51381157 -59.875 132.1484375 C-66.0177155 124.62361101 -71.96783166 116.9656698 -77.81005859 109.20556641 C-78.9666086 107.66940334 -80.12592408 106.13531953 -81.28759766 104.60302734 C-98.48874812 81.88131508 -111.60972093 61.47345819 -109.5 31.9609375 C-107.35291066 19.4405611 -101.04353933 8.09790884 -91.30859375 -0.06640625 C-63.99783383 -19.24851162 -29.30937816 -7.5104773 0 0 Z " fill="#2A659B" transform="translate(122.5,20.0390625)"/>
<path d="M0 0 C4.38339642 1.64112668 7.04886084 4.94072216 10.125 8.3125 C10.66253906 8.88162109 11.20007813 9.45074219 11.75390625 10.03710938 C12.27082031 10.59849609 12.78773437 11.15988281 13.3203125 11.73828125 C13.78711426 12.24399658 14.25391602 12.74971191 14.73486328 13.27075195 C16.93204151 16.27395793 18.13870515 18.74368208 17.72387695 22.50097656 C17.48113037 23.37206055 17.23838379 24.24314453 16.98828125 25.140625 C16.72611816 26.12063477 16.46395508 27.10064453 16.19384766 28.11035156 C15.75758057 29.66447754 15.75758057 29.66447754 15.3125 31.25 C14.73930127 33.4155624 14.17030711 35.58224196 13.60546875 37.75 C13.32751465 38.81347656 13.04956055 39.87695312 12.76318359 40.97265625 C7.48903338 61.72932699 7.48903338 61.72932699 12 82 C16.47520873 88.48731809 22.05209657 93.50976811 30 95 C32.43362472 95.17241708 34.87320596 95.26665768 37.3125 95.3125 C38.58738281 95.34988281 39.86226562 95.38726562 41.17578125 95.42578125 C54.58072516 94.74777913 66.00019306 88.9004489 77.5625 82.6875 C79.86549815 81.47222826 82.17129366 80.26237348 84.47714233 79.05252075 C86.03620459 78.23388747 87.59433297 77.4134732 89.15151978 76.59127808 C96.08529637 72.93362351 103.08440637 69.41681132 110.10873413 65.9369812 C119.62506448 61.22234917 129.09047586 56.42714421 138.47045898 51.44580078 C143.97109708 48.52841062 149.50228782 45.67724951 155.0625 42.875 C155.83174805 42.48393066 156.60099609 42.09286133 157.39355469 41.68994141 C162.76364254 39 162.76364254 39 165 39 C163.79936908 42.60189277 162.60185363 43.34305857 159.625 45.625 C158.71234375 46.33527344 157.7996875 47.04554688 156.859375 47.77734375 C155.91578125 48.51082031 154.9721875 49.24429688 154 50 C152.28687264 51.38994536 150.57860403 52.7858985 148.875 54.1875 C147.49828125 55.31478516 147.49828125 55.31478516 146.09375 56.46484375 C144.47065354 57.79488113 142.84773646 59.1251395 141.2265625 60.45751953 C133.09476727 67.13630467 124.88768945 73.6893501 116.50195312 80.04711914 C112.79330429 82.85945483 109.10554752 85.69299193 105.453125 88.578125 C82.54389994 106.66718269 59.66643874 123.02189902 29 120 C20.41962895 118.43673895 13.08727372 115.0292853 6 110 C5.29101562 109.49855469 4.58203125 108.99710937 3.8515625 108.48046875 C-5.75289521 100.91833826 -11.2559854 88.93551299 -13 77 C-14.93735333 59.53418558 -11.05520379 42.89782221 -7 26 C-6.57581787 24.21795166 -6.57581787 24.21795166 -6.14306641 22.39990234 C-1.48452103 2.96904206 -1.48452103 2.96904206 0 0 Z " fill="#2A6BA1" transform="translate(26,124)"/>
<path d="M0 0 C4.91442096 4.22868781 7.45257169 8.54034591 8 15 C7.88666928 20.60471901 6.06587515 25.00127897 2.02734375 28.92578125 C-2.61054361 32.30658209 -6.94615746 33.08459386 -12.62890625 32.79296875 C-17.72547189 31.8804832 -21.26189052 29.60128225 -24.69140625 25.7734375 C-27.92828487 21.01398532 -28.20119362 15.89600939 -27.3125 10.3125 C-25.18706313 4.33399844 -21.19524532 0.68835572 -15.5625 -2 C-9.86173968 -3.20593007 -5.19523799 -2.64663068 0 0 Z " fill="#2C6297" transform="translate(137.3125,108.6875)"/>
<path d="M0 0 C3.68139855 1.22713285 4.53396451 2.64051023 6.875 5.6875 C7.57367188 6.58597656 8.27234375 7.48445313 8.9921875 8.41015625 C9.98605469 9.69212891 9.98605469 9.69212891 11 11 C12.64894121 13.01581091 14.32242969 15.00788526 16 17 C15.67 17.66 15.34 18.32 15 19 C12.36 16.03 9.72 13.06 7 10 C8.43669138 13.04205093 9.87432518 16.08365047 11.3125 19.125 C11.71662109 19.9809375 12.12074219 20.836875 12.53710938 21.71875 C12.93349609 22.55664062 13.32988281 23.39453125 13.73828125 24.2578125 C14.12322754 25.07540039 14.50817383 25.89298828 14.90478516 26.73535156 C15.83552933 28.65991307 16.83823296 30.54940745 17.85546875 32.4296875 C19 35 19 35 18 38 C15.43143822 32.91221347 12.86808116 27.82185221 10.30957031 22.72900391 C9.4379604 20.99585863 8.56491767 19.26343316 7.69042969 17.53173828 C6.43570054 15.0464641 5.18610074 12.55867004 3.9375 10.0703125 C3.34690796 8.90461227 3.34690796 8.90461227 2.74438477 7.71536255 C0 2.22774341 0 2.22774341 0 0 Z " fill="#4A81AF" transform="translate(165,64)"/>
<path d="M0 0 C0.66 0.33 1.32 0.66 2 1 C-3.16835787 5.77184364 -8.51197448 10.24740446 -14.0625 14.5625 C-21.86312892 20.40968633 -21.86312892 20.40968633 -29 27 C-29 27.66 -29 28.32 -29 29 C-33.38461538 32 -33.38461538 32 -36 32 C-34.41961092 27.71471423 -31.15686371 25.27026114 -27.75 22.4375 C-27.13318359 21.91663818 -26.51636719 21.39577637 -25.88085938 20.85913086 C-20.40729931 16.26802292 -14.8049115 11.84540657 -9.15625 7.47265625 C-6.04126481 5.05429151 -3.01671189 2.53967161 0 0 Z " fill="#5287B3" transform="translate(105,57)"/>
<path d="M0 0 C0.66 0.33 1.32 0.66 2 1 C0.38405168 3.04119788 -1.2856382 5.04072937 -3 7 C-3.66 7 -4.32 7 -5 7 C-5.66 8.32 -6.32 9.64 -7 11 C-7 7.22089522 -6.00296038 6.53893899 -3.5 3.8125 C-2.8503125 3.09707031 -2.200625 2.38164062 -1.53125 1.64453125 C-1.0259375 1.10183594 -0.520625 0.55914063 0 0 Z " fill="#578BB6" transform="translate(30,21)"/>
<path d="M0 0 C-1.24546405 3.73639216 -2.63404953 4.18756513 -6 6 C-6 5.34 -6 4.68 -6 4 C-6.66 3.67 -7.32 3.34 -8 3 C-2.25 0 -2.25 0 0 0 Z " fill="#5D8FB8" transform="translate(191,163)"/>
</svg>
